<?xml version="1.0" encoding="UTF-8" standalone="no"?>
<!DOCTYPE svg PUBLIC "-//W3C//DTD SVG 1.1//EN"
 "http://www.w3.org/Graphics/SVG/1.1/DTD/svg11.dtd">
<!-- Generated by graphviz version 2.40.1 (20161225.0304)
 -->
<!-- Title: models_diagram Pages: 1 -->
<svg width="1591pt" height="1259pt"
 viewBox="0.00 0.00 1591.39 1259.10" xmlns="http://www.w3.org/2000/svg" xmlns:xlink="http://www.w3.org/1999/xlink">
<g id="graph0" class="graph" transform="scale(1 1) rotate(0) translate(36 1223.1003)">
<title>models_diagram</title>
<polygon fill="#ffffff" stroke="transparent" points="-36,36 -36,-1223.1003 1555.3924,-1223.1003 1555.3924,36 -36,36"/>
<!-- Archivo -->
<g id="node1" class="node">
<title>Archivo</title>
<polygon fill="#add8e6" stroke="transparent" points="0,-670.5502 0,-692.5502 106,-692.5502 106,-670.5502 0,-670.5502"/>
<polygon fill="none" stroke="#000000" points="0,-670.5502 0,-692.5502 106,-692.5502 106,-670.5502 0,-670.5502"/>
<text text-anchor="start" x="36.617" y="-679.5502" font-family="Times,serif" font-weight="bold" font-size="10.00" fill="#000000">Archivo</text>
<polygon fill="none" stroke="#000000" points="0,-648.5502 0,-670.5502 106,-670.5502 106,-648.5502 0,-648.5502"/>
<text text-anchor="start" x="5" y="-657.5502" font-family="Times,serif" text-decoration="underline" font-size="10.00" fill="#000000">idArchivo</text>
<text text-anchor="start" x="45.545" y="-657.5502" font-family="Times,serif" font-size="10.00" fill="#000000">: NUMBER</text>
<polygon fill="none" stroke="#000000" points="0,-626.5502 0,-648.5502 106,-648.5502 106,-626.5502 0,-626.5502"/>
<text text-anchor="start" x="5" y="-634.5502" font-family="Times,serif" font-size="10.00" fill="#000000">nombre: STRING</text>
<polygon fill="none" stroke="#000000" points="0,-604.5502 0,-626.5502 106,-626.5502 106,-604.5502 0,-604.5502"/>
<text text-anchor="start" x="5" y="-612.5502" font-family="Times,serif" font-size="10.00" fill="#000000">file: STRING</text>
<polygon fill="none" stroke="#000000" points="0,-582.5502 0,-604.5502 106,-604.5502 106,-582.5502 0,-582.5502"/>
<text text-anchor="start" x="4.818" y="-590.5502" font-family="Times,serif" font-size="10.00" fill="#000000">originalName: STRING</text>
<polygon fill="none" stroke="#000000" points="0,-560.5502 0,-582.5502 106,-582.5502 106,-560.5502 0,-560.5502"/>
<text text-anchor="start" x="5" y="-569.5502" font-family="Times,serif" font-style="italic" text-decoration="underline" font-size="10.00" fill="#000000">idUsuario</text>
<text text-anchor="start" x="44.434" y="-569.5502" font-family="Times,serif" font-size="10.00" fill="#000000">: NUMBER</text>
<polygon fill="none" stroke="#000000" points="0,-538.5502 0,-560.5502 106,-560.5502 106,-538.5502 0,-538.5502"/>
<text text-anchor="start" x="5" y="-546.5502" font-family="Times,serif" font-size="10.00" fill="#000000">createdAt: DATE</text>
<polygon fill="none" stroke="#000000" points="0,-516.5502 0,-538.5502 106,-538.5502 106,-516.5502 0,-516.5502"/>
<text text-anchor="start" x="5" y="-524.5502" font-family="Times,serif" font-size="10.00" fill="#000000">updatedAt: DATE</text>
<polygon fill="none" stroke="#000000" points="0,-494.5502 0,-516.5502 106,-516.5502 106,-494.5502 0,-494.5502"/>
<text text-anchor="start" x="5" y="-502.5502" font-family="Times,serif" font-size="10.00" fill="#000000">deletedAt: DATE</text>
</g>
<!-- Usuario -->
<g id="node11" class="node">
<title>Usuario</title>
<polygon fill="#add8e6" stroke="transparent" points="408.2921,-750.56 408.2921,-772.56 505.2921,-772.56 505.2921,-750.56 408.2921,-750.56"/>
<polygon fill="none" stroke="#000000" points="408.2921,-750.56 408.2921,-772.56 505.2921,-772.56 505.2921,-750.56 408.2921,-750.56"/>
<text text-anchor="start" x="440.9646" y="-759.56" font-family="Times,serif" font-weight="bold" font-size="10.00" fill="#000000">Usuario</text>
<polygon fill="none" stroke="#000000" points="408.2921,-728.56 408.2921,-750.56 505.2921,-750.56 505.2921,-728.56 408.2921,-728.56"/>
<text text-anchor="start" x="413.0486" y="-737.56" font-family="Times,serif" text-decoration="underline" font-size="10.00" fill="#000000">idUsuario</text>
<text text-anchor="start" x="452.4826" y="-737.56" font-family="Times,serif" font-size="10.00" fill="#000000">: NUMBER</text>
<polygon fill="none" stroke="#000000" points="408.2921,-706.56 408.2921,-728.56 505.2921,-728.56 505.2921,-706.56 408.2921,-706.56"/>
<text text-anchor="start" x="413.2921" y="-714.56" font-family="Times,serif" font-size="10.00" fill="#000000">username: STRING</text>
<polygon fill="none" stroke="#000000" points="408.2921,-684.56 408.2921,-706.56 505.2921,-706.56 505.2921,-684.56 408.2921,-684.56"/>
<text text-anchor="start" x="413.2921" y="-692.56" font-family="Times,serif" font-size="10.00" fill="#000000">email: STRING</text>
<polygon fill="none" stroke="#000000" points="408.2921,-662.56 408.2921,-684.56 505.2921,-684.56 505.2921,-662.56 408.2921,-662.56"/>
<text text-anchor="start" x="413.2921" y="-670.56" font-family="Times,serif" font-size="10.00" fill="#000000">password: STRING</text>
<polygon fill="none" stroke="#000000" points="408.2921,-640.56 408.2921,-662.56 505.2921,-662.56 505.2921,-640.56 408.2921,-640.56"/>
<text text-anchor="start" x="413.2921" y="-649.56" font-family="Times,serif" font-style="italic" text-decoration="underline" font-size="10.00" fill="#000000">idPerfil</text>
<text text-anchor="start" x="443.2851" y="-649.56" font-family="Times,serif" font-size="10.00" fill="#000000">: NUMBER</text>
<polygon fill="none" stroke="#000000" points="408.2921,-618.56 408.2921,-640.56 505.2921,-640.56 505.2921,-618.56 408.2921,-618.56"/>
<text text-anchor="start" x="413.2921" y="-626.56" font-family="Times,serif" font-size="10.00" fill="#000000">createdAt: DATE</text>
<polygon fill="none" stroke="#000000" points="408.2921,-596.56 408.2921,-618.56 505.2921,-618.56 505.2921,-596.56 408.2921,-596.56"/>
<text text-anchor="start" x="413.2921" y="-604.56" font-family="Times,serif" font-size="10.00" fill="#000000">updatedAt: DATE</text>
<polygon fill="none" stroke="#000000" points="408.2921,-574.56 408.2921,-596.56 505.2921,-596.56 505.2921,-574.56 408.2921,-574.56"/>
<text text-anchor="start" x="413.2921" y="-582.56" font-family="Times,serif" font-size="10.00" fill="#000000">deletedAt: DATE</text>
</g>
<!-- Archivo&#45;&gt;Usuario -->
<g id="edge1" class="edge">
<title>Archivo&#45;&gt;Usuario</title>
<path fill="none" stroke="#000000" stroke-width=".75" d="M112.2709,-605.309C192.3626,-621.1986 333.6328,-649.2254 407.7675,-663.9331"/>
<polygon fill="#000000" stroke="#000000" stroke-width=".75" points="112.0234,-605.26 106.6636,-601.4439 109.0808,-604.6762 106.1381,-604.0923 106.1381,-604.0923 106.1381,-604.0923 109.0808,-604.6762 105.6127,-606.7407 112.0234,-605.26 112.0234,-605.26"/>
</g>
<!-- Banco -->
<g id="node2" class="node">
<title>Banco</title>
<polygon fill="#add8e6" stroke="transparent" points="993.8522,-1165.1003 993.8522,-1187.1003 1090.8522,-1187.1003 1090.8522,-1165.1003 993.8522,-1165.1003"/>
<polygon fill="none" stroke="#000000" points="993.8522,-1165.1003 993.8522,-1187.1003 1090.8522,-1187.1003 1090.8522,-1165.1003 993.8522,-1165.1003"/>
<text text-anchor="start" x="1029.5787" y="-1174.1003" font-family="Times,serif" font-weight="bold" font-size="10.00" fill="#000000">Banco</text>
<polygon fill="none" stroke="#000000" points="993.8522,-1143.1003 993.8522,-1165.1003 1090.8522,-1165.1003 1090.8522,-1143.1003 993.8522,-1143.1003"/>
<text text-anchor="start" x="998.8522" y="-1152.1003" font-family="Times,serif" text-decoration="underline" font-size="10.00" fill="#000000">idBanco</text>
<text text-anchor="start" x="1032.1782" y="-1152.1003" font-family="Times,serif" font-size="10.00" fill="#000000">: NUMBER</text>
<polygon fill="none" stroke="#000000" points="993.8522,-1121.1003 993.8522,-1143.1003 1090.8522,-1143.1003 1090.8522,-1121.1003 993.8522,-1121.1003"/>
<text text-anchor="start" x="998.8522" y="-1129.1003" font-family="Times,serif" font-size="10.00" fill="#000000">nombre: STRING</text>
<polygon fill="none" stroke="#000000" points="993.8522,-1099.1003 993.8522,-1121.1003 1090.8522,-1121.1003 1090.8522,-1099.1003 993.8522,-1099.1003"/>
<text text-anchor="start" x="998.6087" y="-1108.1003" font-family="Times,serif" font-style="italic" text-decoration="underline" font-size="10.00" fill="#000000">idUsuario</text>
<text text-anchor="start" x="1038.0427" y="-1108.1003" font-family="Times,serif" font-size="10.00" fill="#000000">: NUMBER</text>
<polygon fill="none" stroke="#000000" points="993.8522,-1077.1003 993.8522,-1099.1003 1090.8522,-1099.1003 1090.8522,-1077.1003 993.8522,-1077.1003"/>
<text text-anchor="start" x="998.8522" y="-1085.1003" font-family="Times,serif" font-size="10.00" fill="#000000">activo: BOOLEAN</text>
<polygon fill="none" stroke="#000000" points="993.8522,-1055.1003 993.8522,-1077.1003 1090.8522,-1077.1003 1090.8522,-1055.1003 993.8522,-1055.1003"/>
<text text-anchor="start" x="998.8522" y="-1063.1003" font-family="Times,serif" font-size="10.00" fill="#000000">createdAt: DATE</text>
<polygon fill="none" stroke="#000000" points="993.8522,-1033.1003 993.8522,-1055.1003 1090.8522,-1055.1003 1090.8522,-1033.1003 993.8522,-1033.1003"/>
<text text-anchor="start" x="998.8522" y="-1041.1003" font-family="Times,serif" font-size="10.00" fill="#000000">updatedAt: DATE</text>
<polygon fill="none" stroke="#000000" points="993.8522,-1011.1003 993.8522,-1033.1003 1090.8522,-1033.1003 1090.8522,-1011.1003 993.8522,-1011.1003"/>
<text text-anchor="start" x="998.8522" y="-1019.1003" font-family="Times,serif" font-size="10.00" fill="#000000">deletedAt: DATE</text>
</g>
<!-- Banco&#45;&gt;Usuario -->
<g id="edge2" class="edge">
<title>Banco&#45;&gt;Usuario</title>
<path fill="none" stroke="#000000" stroke-width=".75" d="M988.2427,-1060.1411C875.1934,-977.9854 613.8515,-788.0621 505.1236,-709.047"/>
<polygon fill="#000000" stroke="#000000" stroke-width=".75" points="988.3316,-1060.2056 991.598,-1065.9171 990.7584,-1061.9692 993.1853,-1063.7329 993.1853,-1063.7329 993.1853,-1063.7329 990.7584,-1061.9692 994.7726,-1061.5487 988.3316,-1060.2056 988.3316,-1060.2056"/>
</g>
<!-- Categoria -->
<g id="node3" class="node">
<title>Categoria</title>
<polygon fill="#add8e6" stroke="transparent" points="1210.7447,-267.4967 1210.7447,-289.4967 1314.7447,-289.4967 1314.7447,-267.4967 1210.7447,-267.4967"/>
<polygon fill="none" stroke="#000000" points="1210.7447,-267.4967 1210.7447,-289.4967 1314.7447,-289.4967 1314.7447,-267.4967 1210.7447,-267.4967"/>
<text text-anchor="start" x="1243.3082" y="-276.4967" font-family="Times,serif" font-weight="bold" font-size="10.00" fill="#000000">Categoria</text>
<polygon fill="none" stroke="#000000" points="1210.7447,-245.4967 1210.7447,-267.4967 1314.7447,-267.4967 1314.7447,-245.4967 1210.7447,-245.4967"/>
<text text-anchor="start" x="1215.3922" y="-254.4967" font-family="Times,serif" text-decoration="underline" font-size="10.00" fill="#000000">idCategoria</text>
<text text-anchor="start" x="1262.0442" y="-254.4967" font-family="Times,serif" font-size="10.00" fill="#000000">: NUMBER</text>
<polygon fill="none" stroke="#000000" points="1210.7447,-223.4967 1210.7447,-245.4967 1314.7447,-245.4967 1314.7447,-223.4967 1210.7447,-223.4967"/>
<text text-anchor="start" x="1215.7447" y="-231.4967" font-family="Times,serif" font-size="10.00" fill="#000000">nombre: STRING</text>
<polygon fill="none" stroke="#000000" points="1210.7447,-201.4967 1210.7447,-223.4967 1314.7447,-223.4967 1314.7447,-201.4967 1210.7447,-201.4967"/>
<text text-anchor="start" x="1215.7447" y="-209.4967" font-family="Times,serif" font-size="10.00" fill="#000000">activo: BOOLEAN</text>
<polygon fill="none" stroke="#000000" points="1210.7447,-179.4967 1210.7447,-201.4967 1314.7447,-201.4967 1314.7447,-179.4967 1210.7447,-179.4967"/>
<text text-anchor="start" x="1215.7447" y="-187.4967" font-family="Times,serif" font-size="10.00" fill="#000000">tipo: ENUM</text>
<polygon fill="none" stroke="#000000" points="1210.7447,-157.4967 1210.7447,-179.4967 1314.7447,-179.4967 1314.7447,-157.4967 1210.7447,-157.4967"/>
<text text-anchor="start" x="1215.7447" y="-165.4967" font-family="Times,serif" font-size="10.00" fill="#000000">text_color: STRING</text>
<polygon fill="none" stroke="#000000" points="1210.7447,-135.4967 1210.7447,-157.4967 1314.7447,-157.4967 1314.7447,-135.4967 1210.7447,-135.4967"/>
<text text-anchor="start" x="1215.7447" y="-143.4967" font-family="Times,serif" font-size="10.00" fill="#000000">bg_color: STRING</text>
<polygon fill="none" stroke="#000000" points="1210.7447,-113.4967 1210.7447,-135.4967 1314.7447,-135.4967 1314.7447,-113.4967 1210.7447,-113.4967"/>
<text text-anchor="start" x="1215.7447" y="-121.4967" font-family="Times,serif" font-size="10.00" fill="#000000">createdAt: DATE</text>
<polygon fill="none" stroke="#000000" points="1210.7447,-91.4967 1210.7447,-113.4967 1314.7447,-113.4967 1314.7447,-91.4967 1210.7447,-91.4967"/>
<text text-anchor="start" x="1215.7447" y="-99.4967" font-family="Times,serif" font-size="10.00" fill="#000000">updatedAt: DATE</text>
<polygon fill="none" stroke="#000000" points="1210.7447,-69.4967 1210.7447,-91.4967 1314.7447,-91.4967 1314.7447,-69.4967 1210.7447,-69.4967"/>
<text text-anchor="start" x="1215.7447" y="-77.4967" font-family="Times,serif" font-size="10.00" fill="#000000">deletedAt: DATE</text>
</g>
<!-- Destino -->
<g id="node4" class="node">
<title>Destino</title>
<polygon fill="#add8e6" stroke="transparent" points="829.8324,-154 829.8324,-176 933.8324,-176 933.8324,-154 829.8324,-154"/>
<polygon fill="none" stroke="#000000" points="829.8324,-154 829.8324,-176 933.8324,-176 933.8324,-154 829.8324,-154"/>
<text text-anchor="start" x="866.2799" y="-163" font-family="Times,serif" font-weight="bold" font-size="10.00" fill="#000000">Destino</text>
<polygon fill="none" stroke="#000000" points="829.8324,-132 829.8324,-154 933.8324,-154 933.8324,-132 829.8324,-132"/>
<text text-anchor="start" x="834.8324" y="-141" font-family="Times,serif" text-decoration="underline" font-size="10.00" fill="#000000">idDestino</text>
<text text-anchor="start" x="873.7164" y="-141" font-family="Times,serif" font-size="10.00" fill="#000000">: NUMBER</text>
<polygon fill="none" stroke="#000000" points="829.8324,-110 829.8324,-132 933.8324,-132 933.8324,-110 829.8324,-110"/>
<text text-anchor="start" x="834.8324" y="-118" font-family="Times,serif" font-size="10.00" fill="#000000">nombre: STRING</text>
<polygon fill="none" stroke="#000000" points="829.8324,-88 829.8324,-110 933.8324,-110 933.8324,-88 829.8324,-88"/>
<text text-anchor="start" x="834.4799" y="-97" font-family="Times,serif" font-style="italic" text-decoration="underline" font-size="10.00" fill="#000000">idCategoria</text>
<text text-anchor="start" x="881.1319" y="-97" font-family="Times,serif" font-size="10.00" fill="#000000">: NUMBER</text>
<polygon fill="none" stroke="#000000" points="829.8324,-66 829.8324,-88 933.8324,-88 933.8324,-66 829.8324,-66"/>
<text text-anchor="start" x="834.8324" y="-74" font-family="Times,serif" font-size="10.00" fill="#000000">activo: BOOLEAN</text>
<polygon fill="none" stroke="#000000" points="829.8324,-44 829.8324,-66 933.8324,-66 933.8324,-44 829.8324,-44"/>
<text text-anchor="start" x="834.8324" y="-52" font-family="Times,serif" font-size="10.00" fill="#000000">createdAt: DATE</text>
<polygon fill="none" stroke="#000000" points="829.8324,-22 829.8324,-44 933.8324,-44 933.8324,-22 829.8324,-22"/>
<text text-anchor="start" x="834.8324" y="-30" font-family="Times,serif" font-size="10.00" fill="#000000">updatedAt: DATE</text>
<polygon fill="none" stroke="#000000" points="829.8324,0 829.8324,-22 933.8324,-22 933.8324,0 829.8324,0"/>
<text text-anchor="start" x="834.8324" y="-8" font-family="Times,serif" font-size="10.00" fill="#000000">deletedAt: DATE</text>
</g>
<!-- Destino&#45;&gt;Categoria -->
<g id="edge3" class="edge">
<title>Destino&#45;&gt;Categoria</title>
<path fill="none" stroke="#000000" stroke-width=".75" d="M940.0935,-101.9946C1013.8659,-119.715 1139.8585,-149.9789 1210.5994,-166.9712"/>
<polygon fill="#000000" stroke="#000000" stroke-width=".75" points="939.832,-101.9318 934.6286,-97.905 936.915,-101.2311 933.998,-100.5304 933.998,-100.5304 933.998,-100.5304 936.915,-101.2311 933.3673,-103.1557 939.832,-101.9318 939.832,-101.9318"/>
</g>
<!-- FormaPago -->
<g id="node5" class="node">
<title>FormaPago</title>
<polygon fill="#add8e6" stroke="transparent" points="372.2557,-260.0535 372.2557,-282.0535 483.2557,-282.0535 483.2557,-260.0535 372.2557,-260.0535"/>
<polygon fill="none" stroke="#000000" points="372.2557,-260.0535 372.2557,-282.0535 483.2557,-282.0535 483.2557,-260.0535 372.2557,-260.0535"/>
<text text-anchor="start" x="404.7037" y="-269.0535" font-family="Times,serif" font-weight="bold" font-size="10.00" fill="#000000">FormaPago</text>
<polygon fill="none" stroke="#000000" points="372.2557,-238.0535 372.2557,-260.0535 483.2557,-260.0535 483.2557,-238.0535 372.2557,-238.0535"/>
<text text-anchor="start" x="376.7877" y="-247.0535" font-family="Times,serif" text-decoration="underline" font-size="10.00" fill="#000000">idFormaPago</text>
<text text-anchor="start" x="430.6707" y="-247.0535" font-family="Times,serif" font-size="10.00" fill="#000000">: NUMBER</text>
<polygon fill="none" stroke="#000000" points="372.2557,-216.0535 372.2557,-238.0535 483.2557,-238.0535 483.2557,-216.0535 372.2557,-216.0535"/>
<text text-anchor="start" x="377.2557" y="-224.0535" font-family="Times,serif" font-size="10.00" fill="#000000">nombre: STRING</text>
<polygon fill="none" stroke="#000000" points="372.2557,-194.0535 372.2557,-216.0535 483.2557,-216.0535 483.2557,-194.0535 372.2557,-194.0535"/>
<text text-anchor="start" x="377.2557" y="-202.0535" font-family="Times,serif" font-size="10.00" fill="#000000">activo: BOOLEAN</text>
<polygon fill="none" stroke="#000000" points="372.2557,-172.0535 372.2557,-194.0535 483.2557,-194.0535 483.2557,-172.0535 372.2557,-172.0535"/>
<text text-anchor="start" x="377.2557" y="-180.0535" font-family="Times,serif" font-size="10.00" fill="#000000">createdAt: DATE</text>
<polygon fill="none" stroke="#000000" points="372.2557,-150.0535 372.2557,-172.0535 483.2557,-172.0535 483.2557,-150.0535 372.2557,-150.0535"/>
<text text-anchor="start" x="377.2557" y="-158.0535" font-family="Times,serif" font-size="10.00" fill="#000000">updatedAt: DATE</text>
<polygon fill="none" stroke="#000000" points="372.2557,-128.0535 372.2557,-150.0535 483.2557,-150.0535 483.2557,-128.0535 372.2557,-128.0535"/>
<text text-anchor="start" x="377.2557" y="-136.0535" font-family="Times,serif" font-size="10.00" fill="#000000">deletedAt: DATE</text>
</g>
<!-- Gasto -->
<g id="node6" class="node">
<title>Gasto</title>
<polygon fill="#add8e6" stroke="transparent" points="490.7888,-435.6477 490.7888,-457.6477 605.7888,-457.6477 605.7888,-435.6477 490.7888,-435.6477"/>
<polygon fill="none" stroke="#000000" points="490.7888,-435.6477 490.7888,-457.6477 605.7888,-457.6477 605.7888,-435.6477 490.7888,-435.6477"/>
<text text-anchor="start" x="536.6258" y="-444.6477" font-family="Times,serif" font-weight="bold" font-size="10.00" fill="#000000">Gasto</text>
<polygon fill="none" stroke="#000000" points="490.7888,-413.6477 490.7888,-435.6477 605.7888,-435.6477 605.7888,-413.6477 490.7888,-413.6477"/>
<text text-anchor="start" x="495.7888" y="-422.6477" font-family="Times,serif" text-decoration="underline" font-size="10.00" fill="#000000">idGasto</text>
<text text-anchor="start" x="526.8938" y="-422.6477" font-family="Times,serif" font-size="10.00" fill="#000000">: NUMBER</text>
<polygon fill="none" stroke="#000000" points="490.7888,-391.6477 490.7888,-413.6477 605.7888,-413.6477 605.7888,-391.6477 490.7888,-391.6477"/>
<text text-anchor="start" x="495.7888" y="-399.6477" font-family="Times,serif" font-size="10.00" fill="#000000">monto: NUMBER</text>
<polygon fill="none" stroke="#000000" points="490.7888,-369.6477 490.7888,-391.6477 605.7888,-391.6477 605.7888,-369.6477 490.7888,-369.6477"/>
<text text-anchor="start" x="495.7888" y="-377.6477" font-family="Times,serif" font-size="10.00" fill="#000000">descripcion: STRING</text>
<polygon fill="none" stroke="#000000" points="490.7888,-347.6477 490.7888,-369.6477 605.7888,-369.6477 605.7888,-347.6477 490.7888,-347.6477"/>
<text text-anchor="start" x="495.7888" y="-355.6477" font-family="Times,serif" font-size="10.00" fill="#000000">fecha: DATE</text>
<polygon fill="none" stroke="#000000" points="490.7888,-325.6477 490.7888,-347.6477 605.7888,-347.6477 605.7888,-325.6477 490.7888,-325.6477"/>
<text text-anchor="start" x="495.7888" y="-334.6477" font-family="Times,serif" font-style="italic" text-decoration="underline" font-size="10.00" fill="#000000">idUsuario</text>
<text text-anchor="start" x="535.2228" y="-334.6477" font-family="Times,serif" font-size="10.00" fill="#000000">: NUMBER</text>
<polygon fill="none" stroke="#000000" points="490.7888,-303.6477 490.7888,-325.6477 605.7888,-325.6477 605.7888,-303.6477 490.7888,-303.6477"/>
<text text-anchor="start" x="495.7888" y="-312.6477" font-family="Times,serif" font-style="italic" text-decoration="underline" font-size="10.00" fill="#000000">idDestino</text>
<text text-anchor="start" x="534.6728" y="-312.6477" font-family="Times,serif" font-size="10.00" fill="#000000">: NUMBER</text>
<polygon fill="none" stroke="#000000" points="490.7888,-281.6477 490.7888,-303.6477 605.7888,-303.6477 605.7888,-281.6477 490.7888,-281.6477"/>
<text text-anchor="start" x="495.6723" y="-289.6477" font-family="Times,serif" font-size="10.00" fill="#000000">fechaVencimiento: DATE</text>
<polygon fill="none" stroke="#000000" points="490.7888,-259.6477 490.7888,-281.6477 605.7888,-281.6477 605.7888,-259.6477 490.7888,-259.6477"/>
<text text-anchor="start" x="495.7888" y="-267.6477" font-family="Times,serif" font-size="10.00" fill="#000000">fechaPago: DATE</text>
<polygon fill="none" stroke="#000000" points="490.7888,-237.6477 490.7888,-259.6477 605.7888,-259.6477 605.7888,-237.6477 490.7888,-237.6477"/>
<text text-anchor="start" x="495.7888" y="-246.6477" font-family="Times,serif" font-style="italic" text-decoration="underline" font-size="10.00" fill="#000000">idFormaPago</text>
<text text-anchor="start" x="549.6718" y="-246.6477" font-family="Times,serif" font-size="10.00" fill="#000000">: NUMBER</text>
<polygon fill="none" stroke="#000000" points="490.7888,-215.6477 490.7888,-237.6477 605.7888,-237.6477 605.7888,-215.6477 490.7888,-215.6477"/>
<text text-anchor="start" x="495.7888" y="-224.6477" font-family="Times,serif" font-style="italic" text-decoration="underline" font-size="10.00" fill="#000000">idTarjeta</text>
<text text-anchor="start" x="531.8808" y="-224.6477" font-family="Times,serif" font-size="10.00" fill="#000000">: NUMBER</text>
<polygon fill="none" stroke="#000000" points="490.7888,-193.6477 490.7888,-215.6477 605.7888,-215.6477 605.7888,-193.6477 490.7888,-193.6477"/>
<text text-anchor="start" x="495.7888" y="-201.6477" font-family="Times,serif" font-size="10.00" fill="#000000">cuotas: NUMBER</text>
<polygon fill="none" stroke="#000000" points="490.7888,-171.6477 490.7888,-193.6477 605.7888,-193.6477 605.7888,-171.6477 490.7888,-171.6477"/>
<text text-anchor="start" x="495.7888" y="-179.6477" font-family="Times,serif" font-size="10.00" fill="#000000">createdAt: DATE</text>
<polygon fill="none" stroke="#000000" points="490.7888,-149.6477 490.7888,-171.6477 605.7888,-171.6477 605.7888,-149.6477 490.7888,-149.6477"/>
<text text-anchor="start" x="495.7888" y="-157.6477" font-family="Times,serif" font-size="10.00" fill="#000000">updatedAt: DATE</text>
<polygon fill="none" stroke="#000000" points="490.7888,-127.6477 490.7888,-149.6477 605.7888,-149.6477 605.7888,-127.6477 490.7888,-127.6477"/>
<text text-anchor="start" x="495.7888" y="-135.6477" font-family="Times,serif" font-size="10.00" fill="#000000">deletedAt: DATE</text>
</g>
<!-- Gasto&#45;&gt;Destino -->
<g id="edge6" class="edge">
<title>Gasto&#45;&gt;Destino</title>
<path fill="none" stroke="#000000" stroke-width=".75" d="M610.8525,-254.0126C674.158,-215.2292 770.5416,-156.181 829.6739,-119.9543"/>
<polygon fill="#000000" stroke="#000000" stroke-width=".75" points="610.7096,-254.1 604.1829,-254.9322 608.1515,-255.6672 605.5934,-257.2345 605.5934,-257.2345 605.5934,-257.2345 608.1515,-255.6672 607.0039,-259.5368 610.7096,-254.1 610.7096,-254.1"/>
</g>
<!-- Gasto&#45;&gt;FormaPago -->
<g id="edge5" class="edge">
<title>Gasto&#45;&gt;FormaPago</title>
<path fill="none" stroke="#000000" stroke-width=".75" d="M484.8253,-246.8907C484.2514,-246.4736 483.6778,-246.0568 483.1048,-245.6404"/>
<polygon fill="#000000" stroke="#000000" stroke-width=".75" points="485.1398,-247.1192 488.4062,-252.8307 487.5667,-248.8829 489.9935,-250.6465 489.9935,-250.6465 489.9935,-250.6465 487.5667,-248.8829 491.5808,-248.4624 485.1398,-247.1192 485.1398,-247.1192"/>
</g>
<!-- Tarjeta -->
<g id="node10" class="node">
<title>Tarjeta</title>
<polygon fill="#add8e6" stroke="transparent" points="612.9399,-1117.6036 612.9399,-1139.6036 709.9399,-1139.6036 709.9399,-1117.6036 612.9399,-1117.6036"/>
<polygon fill="none" stroke="#000000" points="612.9399,-1117.6036 612.9399,-1139.6036 709.9399,-1139.6036 709.9399,-1117.6036 612.9399,-1117.6036"/>
<text text-anchor="start" x="647.2834" y="-1126.6036" font-family="Times,serif" font-weight="bold" font-size="10.00" fill="#000000">Tarjeta</text>
<polygon fill="none" stroke="#000000" points="612.9399,-1095.6036 612.9399,-1117.6036 709.9399,-1117.6036 709.9399,-1095.6036 612.9399,-1095.6036"/>
<text text-anchor="start" x="617.9399" y="-1104.6036" font-family="Times,serif" text-decoration="underline" font-size="10.00" fill="#000000">idTarjeta</text>
<text text-anchor="start" x="654.0319" y="-1104.6036" font-family="Times,serif" font-size="10.00" fill="#000000">: NUMBER</text>
<polygon fill="none" stroke="#000000" points="612.9399,-1073.6036 612.9399,-1095.6036 709.9399,-1095.6036 709.9399,-1073.6036 612.9399,-1073.6036"/>
<text text-anchor="start" x="617.9399" y="-1081.6036" font-family="Times,serif" font-size="10.00" fill="#000000">nombre: STRING</text>
<polygon fill="none" stroke="#000000" points="612.9399,-1051.6036 612.9399,-1073.6036 709.9399,-1073.6036 709.9399,-1051.6036 612.9399,-1051.6036"/>
<text text-anchor="start" x="617.9399" y="-1059.6036" font-family="Times,serif" font-size="10.00" fill="#000000">limite: NUMBER</text>
<polygon fill="none" stroke="#000000" points="612.9399,-1029.6036 612.9399,-1051.6036 709.9399,-1051.6036 709.9399,-1029.6036 612.9399,-1029.6036"/>
<text text-anchor="start" x="617.6964" y="-1038.6036" font-family="Times,serif" font-style="italic" text-decoration="underline" font-size="10.00" fill="#000000">idUsuario</text>
<text text-anchor="start" x="657.1304" y="-1038.6036" font-family="Times,serif" font-size="10.00" fill="#000000">: NUMBER</text>
<polygon fill="none" stroke="#000000" points="612.9399,-1007.6036 612.9399,-1029.6036 709.9399,-1029.6036 709.9399,-1007.6036 612.9399,-1007.6036"/>
<text text-anchor="start" x="617.9399" y="-1016.6036" font-family="Times,serif" font-style="italic" text-decoration="underline" font-size="10.00" fill="#000000">idBanco</text>
<text text-anchor="start" x="651.2659" y="-1016.6036" font-family="Times,serif" font-size="10.00" fill="#000000">: NUMBER</text>
<polygon fill="none" stroke="#000000" points="612.9399,-985.6036 612.9399,-1007.6036 709.9399,-1007.6036 709.9399,-985.6036 612.9399,-985.6036"/>
<text text-anchor="start" x="617.9399" y="-993.6036" font-family="Times,serif" font-size="10.00" fill="#000000">terminaEn: STRING</text>
<polygon fill="none" stroke="#000000" points="612.9399,-963.6036 612.9399,-985.6036 709.9399,-985.6036 709.9399,-963.6036 612.9399,-963.6036"/>
<text text-anchor="start" x="617.9399" y="-971.6036" font-family="Times,serif" font-size="10.00" fill="#000000">color: STRING</text>
<polygon fill="none" stroke="#000000" points="612.9399,-941.6036 612.9399,-963.6036 709.9399,-963.6036 709.9399,-941.6036 612.9399,-941.6036"/>
<text text-anchor="start" x="617.9399" y="-949.6036" font-family="Times,serif" font-size="10.00" fill="#000000">activo: BOOLEAN</text>
<polygon fill="none" stroke="#000000" points="612.9399,-919.6036 612.9399,-941.6036 709.9399,-941.6036 709.9399,-919.6036 612.9399,-919.6036"/>
<text text-anchor="start" x="617.9399" y="-927.6036" font-family="Times,serif" font-size="10.00" fill="#000000">createdAt: DATE</text>
<polygon fill="none" stroke="#000000" points="612.9399,-897.6036 612.9399,-919.6036 709.9399,-919.6036 709.9399,-897.6036 612.9399,-897.6036"/>
<text text-anchor="start" x="617.9399" y="-905.6036" font-family="Times,serif" font-size="10.00" fill="#000000">updatedAt: DATE</text>
<polygon fill="none" stroke="#000000" points="612.9399,-875.6036 612.9399,-897.6036 709.9399,-897.6036 709.9399,-875.6036 612.9399,-875.6036"/>
<text text-anchor="start" x="617.9399" y="-883.6036" font-family="Times,serif" font-size="10.00" fill="#000000">deletedAt: DATE</text>
</g>
<!-- Gasto&#45;&gt;Tarjeta -->
<g id="edge7" class="edge">
<title>Gasto&#45;&gt;Tarjeta</title>
<path fill="none" stroke="#000000" stroke-width=".75" d="M574.9081,-464.0034C594.9028,-590.3416 621.7046,-759.6918 640.0487,-875.6005"/>
<polygon fill="#000000" stroke="#000000" stroke-width=".75" points="574.8992,-463.9465 576.628,-457.5981 574.4302,-460.9833 573.9612,-458.0202 573.9612,-458.0202 573.9612,-458.0202 574.4302,-460.9833 571.2944,-458.4423 574.8992,-463.9465 574.8992,-463.9465"/>
</g>
<!-- Gasto&#45;&gt;Usuario -->
<g id="edge4" class="edge">
<title>Gasto&#45;&gt;Usuario</title>
<path fill="none" stroke="#000000" stroke-width=".75" d="M506.6644,-463.8541C497.5632,-501.7436 488.2153,-540.6598 480.0816,-574.5217"/>
<polygon fill="#000000" stroke="#000000" stroke-width=".75" points="506.7213,-463.6168 510.748,-458.4134 507.422,-460.6998 508.1227,-457.7828 508.1227,-457.7828 508.1227,-457.7828 507.422,-460.6998 505.4974,-457.1521 506.7213,-463.6168 506.7213,-463.6168"/>
</g>
<!-- Ingreso -->
<g id="node7" class="node">
<title>Ingreso</title>
<polygon fill="#add8e6" stroke="transparent" points="1327.8958,-993.4526 1327.8958,-1015.4526 1424.8958,-1015.4526 1424.8958,-993.4526 1327.8958,-993.4526"/>
<polygon fill="none" stroke="#000000" points="1327.8958,-993.4526 1327.8958,-1015.4526 1424.8958,-1015.4526 1424.8958,-993.4526 1327.8958,-993.4526"/>
<text text-anchor="start" x="1361.4028" y="-1002.4526" font-family="Times,serif" font-weight="bold" font-size="10.00" fill="#000000">Ingreso</text>
<polygon fill="none" stroke="#000000" points="1327.8958,-971.4526 1327.8958,-993.4526 1424.8958,-993.4526 1424.8958,-971.4526 1327.8958,-971.4526"/>
<text text-anchor="start" x="1332.8958" y="-980.4526" font-family="Times,serif" text-decoration="underline" font-size="10.00" fill="#000000">idIngreso</text>
<text text-anchor="start" x="1370.6608" y="-980.4526" font-family="Times,serif" font-size="10.00" fill="#000000">: NUMBER</text>
<polygon fill="none" stroke="#000000" points="1327.8958,-949.4526 1327.8958,-971.4526 1424.8958,-971.4526 1424.8958,-949.4526 1327.8958,-949.4526"/>
<text text-anchor="start" x="1332.8958" y="-957.4526" font-family="Times,serif" font-size="10.00" fill="#000000">monto: NUMBER</text>
<polygon fill="none" stroke="#000000" points="1327.8958,-927.4526 1327.8958,-949.4526 1424.8958,-949.4526 1424.8958,-927.4526 1327.8958,-927.4526"/>
<text text-anchor="start" x="1332.6578" y="-935.4526" font-family="Times,serif" font-size="10.00" fill="#000000">descripcion: STRING</text>
<polygon fill="none" stroke="#000000" points="1327.8958,-905.4526 1327.8958,-927.4526 1424.8958,-927.4526 1424.8958,-905.4526 1327.8958,-905.4526"/>
<text text-anchor="start" x="1332.8958" y="-913.4526" font-family="Times,serif" font-size="10.00" fill="#000000">fecha: DATE</text>
<polygon fill="none" stroke="#000000" points="1327.8958,-883.4526 1327.8958,-905.4526 1424.8958,-905.4526 1424.8958,-883.4526 1327.8958,-883.4526"/>
<text text-anchor="start" x="1332.6523" y="-892.4526" font-family="Times,serif" font-style="italic" text-decoration="underline" font-size="10.00" fill="#000000">idUsuario</text>
<text text-anchor="start" x="1372.0863" y="-892.4526" font-family="Times,serif" font-size="10.00" fill="#000000">: NUMBER</text>
<polygon fill="none" stroke="#000000" points="1327.8958,-861.4526 1327.8958,-883.4526 1424.8958,-883.4526 1424.8958,-861.4526 1327.8958,-861.4526"/>
<text text-anchor="start" x="1332.8958" y="-870.4526" font-family="Times,serif" font-style="italic" text-decoration="underline" font-size="10.00" fill="#000000">idOrigen</text>
<text text-anchor="start" x="1368.4408" y="-870.4526" font-family="Times,serif" font-size="10.00" fill="#000000">: NUMBER</text>
<polygon fill="none" stroke="#000000" points="1327.8958,-839.4526 1327.8958,-861.4526 1424.8958,-861.4526 1424.8958,-839.4526 1327.8958,-839.4526"/>
<text text-anchor="start" x="1332.8958" y="-847.4526" font-family="Times,serif" font-size="10.00" fill="#000000">fechaCobro: DATE</text>
<polygon fill="none" stroke="#000000" points="1327.8958,-817.4526 1327.8958,-839.4526 1424.8958,-839.4526 1424.8958,-817.4526 1327.8958,-817.4526"/>
<text text-anchor="start" x="1332.8958" y="-825.4526" font-family="Times,serif" font-size="10.00" fill="#000000">createdAt: DATE</text>
<polygon fill="none" stroke="#000000" points="1327.8958,-795.4526 1327.8958,-817.4526 1424.8958,-817.4526 1424.8958,-795.4526 1327.8958,-795.4526"/>
<text text-anchor="start" x="1332.8958" y="-803.4526" font-family="Times,serif" font-size="10.00" fill="#000000">updatedAt: DATE</text>
<polygon fill="none" stroke="#000000" points="1327.8958,-773.4526 1327.8958,-795.4526 1424.8958,-795.4526 1424.8958,-773.4526 1327.8958,-773.4526"/>
<text text-anchor="start" x="1332.8958" y="-781.4526" font-family="Times,serif" font-size="10.00" fill="#000000">deletedAt: DATE</text>
</g>
<!-- Origen -->
<g id="node8" class="node">
<title>Origen</title>
<polygon fill="#add8e6" stroke="transparent" points="1415.3924,-579.5403 1415.3924,-601.5403 1519.3924,-601.5403 1519.3924,-579.5403 1415.3924,-579.5403"/>
<polygon fill="none" stroke="#000000" points="1415.3924,-579.5403 1415.3924,-601.5403 1519.3924,-601.5403 1519.3924,-579.5403 1415.3924,-579.5403"/>
<text text-anchor="start" x="1453.5094" y="-588.5403" font-family="Times,serif" font-weight="bold" font-size="10.00" fill="#000000">Origen</text>
<polygon fill="none" stroke="#000000" points="1415.3924,-557.5403 1415.3924,-579.5403 1519.3924,-579.5403 1519.3924,-557.5403 1415.3924,-557.5403"/>
<text text-anchor="start" x="1420.3924" y="-566.5403" font-family="Times,serif" text-decoration="underline" font-size="10.00" fill="#000000">idOrigen</text>
<text text-anchor="start" x="1455.9374" y="-566.5403" font-family="Times,serif" font-size="10.00" fill="#000000">: NUMBER</text>
<polygon fill="none" stroke="#000000" points="1415.3924,-535.5403 1415.3924,-557.5403 1519.3924,-557.5403 1519.3924,-535.5403 1415.3924,-535.5403"/>
<text text-anchor="start" x="1420.3924" y="-543.5403" font-family="Times,serif" font-size="10.00" fill="#000000">nombre: STRING</text>
<polygon fill="none" stroke="#000000" points="1415.3924,-513.5403 1415.3924,-535.5403 1519.3924,-535.5403 1519.3924,-513.5403 1415.3924,-513.5403"/>
<text text-anchor="start" x="1420.0399" y="-522.5403" font-family="Times,serif" font-style="italic" text-decoration="underline" font-size="10.00" fill="#000000">idCategoria</text>
<text text-anchor="start" x="1466.6919" y="-522.5403" font-family="Times,serif" font-size="10.00" fill="#000000">: NUMBER</text>
<polygon fill="none" stroke="#000000" points="1415.3924,-491.5403 1415.3924,-513.5403 1519.3924,-513.5403 1519.3924,-491.5403 1415.3924,-491.5403"/>
<text text-anchor="start" x="1420.3924" y="-499.5403" font-family="Times,serif" font-size="10.00" fill="#000000">activo: BOOLEAN</text>
<polygon fill="none" stroke="#000000" points="1415.3924,-469.5403 1415.3924,-491.5403 1519.3924,-491.5403 1519.3924,-469.5403 1415.3924,-469.5403"/>
<text text-anchor="start" x="1420.3924" y="-477.5403" font-family="Times,serif" font-size="10.00" fill="#000000">createdAt: DATE</text>
<polygon fill="none" stroke="#000000" points="1415.3924,-447.5403 1415.3924,-469.5403 1519.3924,-469.5403 1519.3924,-447.5403 1415.3924,-447.5403"/>
<text text-anchor="start" x="1420.3924" y="-455.5403" font-family="Times,serif" font-size="10.00" fill="#000000">updatedAt: DATE</text>
<polygon fill="none" stroke="#000000" points="1415.3924,-425.5403 1415.3924,-447.5403 1519.3924,-447.5403 1519.3924,-425.5403 1415.3924,-425.5403"/>
<text text-anchor="start" x="1420.3924" y="-433.5403" font-family="Times,serif" font-size="10.00" fill="#000000">deletedAt: DATE</text>
</g>
<!-- Ingreso&#45;&gt;Origen -->
<g id="edge9" class="edge">
<title>Ingreso&#45;&gt;Origen</title>
<path fill="none" stroke="#000000" stroke-width=".75" d="M1406.3924,-767.4912C1419.4605,-713.0871 1434.4035,-650.8775 1446.2289,-601.647"/>
<polygon fill="#000000" stroke="#000000" stroke-width=".75" points="1406.373,-767.5721 1402.3463,-772.7755 1405.6723,-770.4891 1404.9716,-773.4062 1404.9716,-773.4062 1404.9716,-773.4062 1405.6723,-770.4891 1407.5969,-774.0368 1406.373,-767.5721 1406.373,-767.5721"/>
</g>
<!-- Ingreso&#45;&gt;Usuario -->
<g id="edge8" class="edge">
<title>Ingreso&#45;&gt;Usuario</title>
<path fill="none" stroke="#000000" stroke-width=".75" d="M1320.8711,-881.2354C1155.0727,-841.41 662.0739,-722.9897 504.9672,-685.252"/>
<polygon fill="#000000" stroke="#000000" stroke-width=".75" points="1321.2691,-881.3309 1326.4725,-885.3577 1324.1861,-882.0317 1327.1032,-882.7324 1327.1032,-882.7324 1327.1032,-882.7324 1324.1861,-882.0317 1327.7338,-880.1071 1321.2691,-881.3309 1321.2691,-881.3309"/>
</g>
<!-- Origen&#45;&gt;Categoria -->
<g id="edge10" class="edge">
<title>Origen&#45;&gt;Categoria</title>
<path fill="none" stroke="#000000" stroke-width=".75" d="M1411.9452,-423.0345C1381.7111,-373.6838 1344.5114,-312.9633 1314.8202,-264.4988"/>
<polygon fill="#000000" stroke="#000000" stroke-width=".75" points="1412.0872,-423.2664 1412.9194,-429.7931 1413.6545,-425.8245 1415.2217,-428.3827 1415.2217,-428.3827 1415.2217,-428.3827 1413.6545,-425.8245 1417.524,-426.9722 1412.0872,-423.2664 1412.0872,-423.2664"/>
</g>
<!-- Perfil -->
<g id="node9" class="node">
<title>Perfil</title>
<polygon fill="#add8e6" stroke="transparent" points="275.9886,-739.1318 275.9886,-761.1318 363.9886,-761.1318 363.9886,-739.1318 275.9886,-739.1318"/>
<polygon fill="none" stroke="#000000" points="275.9886,-739.1318 275.9886,-761.1318 363.9886,-761.1318 363.9886,-739.1318 275.9886,-739.1318"/>
<text text-anchor="start" x="308.8816" y="-748.1318" font-family="Times,serif" font-weight="bold" font-size="10.00" fill="#000000">Perfil</text>
<polygon fill="none" stroke="#000000" points="275.9886,-717.1318 275.9886,-739.1318 363.9886,-739.1318 363.9886,-717.1318 275.9886,-717.1318"/>
<text text-anchor="start" x="280.9656" y="-726.1318" font-family="Times,serif" text-decoration="underline" font-size="10.00" fill="#000000">idPerfil</text>
<text text-anchor="start" x="310.9586" y="-726.1318" font-family="Times,serif" font-size="10.00" fill="#000000">: NUMBER</text>
<polygon fill="none" stroke="#000000" points="275.9886,-695.1318 275.9886,-717.1318 363.9886,-717.1318 363.9886,-695.1318 275.9886,-695.1318"/>
<text text-anchor="start" x="280.9886" y="-703.1318" font-family="Times,serif" font-size="10.00" fill="#000000">nombre: STRING</text>
<polygon fill="none" stroke="#000000" points="275.9886,-673.1318 275.9886,-695.1318 363.9886,-695.1318 363.9886,-673.1318 275.9886,-673.1318"/>
<text text-anchor="start" x="280.9886" y="-681.1318" font-family="Times,serif" font-size="10.00" fill="#000000">createdAt: DATE</text>
<polygon fill="none" stroke="#000000" points="275.9886,-651.1318 275.9886,-673.1318 363.9886,-673.1318 363.9886,-651.1318 275.9886,-651.1318"/>
<text text-anchor="start" x="280.9886" y="-659.1318" font-family="Times,serif" font-size="10.00" fill="#000000">updatedAt: DATE</text>
<polygon fill="none" stroke="#000000" points="275.9886,-629.1318 275.9886,-651.1318 363.9886,-651.1318 363.9886,-629.1318 275.9886,-629.1318"/>
<text text-anchor="start" x="280.9886" y="-637.1318" font-family="Times,serif" font-size="10.00" fill="#000000">deletedAt: DATE</text>
</g>
<!-- Tarjeta&#45;&gt;Banco -->
<g id="edge12" class="edge">
<title>Tarjeta&#45;&gt;Banco</title>
<path fill="none" stroke="#000000" stroke-width=".75" d="M715.7082,-1020.7592C790.1428,-1038.6387 922.0983,-1070.3349 993.2115,-1087.4166"/>
<polygon fill="#000000" stroke="#000000" stroke-width=".75" points="715.4037,-1020.6861 710.2002,-1016.6594 712.4866,-1019.9854 709.5696,-1019.2847 709.5696,-1019.2847 709.5696,-1019.2847 712.4866,-1019.9854 708.9389,-1021.91 715.4037,-1020.6861 715.4037,-1020.6861"/>
</g>
<!-- Tarjeta&#45;&gt;Usuario -->
<g id="edge11" class="edge">
<title>Tarjeta&#45;&gt;Usuario</title>
<path fill="none" stroke="#000000" stroke-width=".75" d="M608.9167,-922.6869C576.9205,-870.4599 536.1896,-803.9755 504.8539,-752.8267"/>
<polygon fill="#000000" stroke="#000000" stroke-width=".75" points="609.0472,-922.9 609.8794,-929.4268 610.6144,-925.4581 612.1817,-928.0163 612.1817,-928.0163 612.1817,-928.0163 610.6144,-925.4581 614.484,-926.6058 609.0472,-922.9 609.0472,-922.9"/>
</g>
<!-- Usuario&#45;&gt;Perfil -->
<g id="edge13" class="edge">
<title>Usuario&#45;&gt;Perfil</title>
<path fill="none" stroke="#000000" stroke-width=".75" d="M401.4753,-682.2355C389.1528,-684.1857 376.2251,-686.2317 364.3896,-688.1048"/>
<polygon fill="#000000" stroke="#000000" stroke-width=".75" points="401.5422,-682.225 407.8905,-683.9538 404.5053,-681.756 407.4684,-681.287 407.4684,-681.287 407.4684,-681.287 404.5053,-681.756 407.0463,-678.6202 401.5422,-682.225 401.5422,-682.225"/>
</g>
</g>
</svg>
