<?xml version="1.0" encoding="UTF-8" standalone="no"?>
<!DOCTYPE svg PUBLIC "-//W3C//DTD SVG 1.1//EN"
 "http://www.w3.org/Graphics/SVG/1.1/DTD/svg11.dtd">
<!-- Generated by graphviz version 2.40.1 (20161225.0304)
 -->
<!-- Title: models_diagram Pages: 1 -->
<svg width="1330pt" height="1272pt"
 viewBox="0.00 0.00 1329.68 1271.68" xmlns="http://www.w3.org/2000/svg" xmlns:xlink="http://www.w3.org/1999/xlink">
<g id="graph0" class="graph" transform="scale(1 1) rotate(0) translate(36 1235.6846)">
<title>models_diagram</title>
<polygon fill="#ffffff" stroke="transparent" points="-36,36 -36,-1235.6846 1293.6846,-1235.6846 1293.6846,36 -36,36"/>
<!-- Banco -->
<g id="node1" class="node">
<title>Banco</title>
<polygon fill="#add8e6" stroke="transparent" points="515.8423,-154 515.8423,-176 612.8423,-176 612.8423,-154 515.8423,-154"/>
<polygon fill="none" stroke="#000000" points="515.8423,-154 515.8423,-176 612.8423,-176 612.8423,-154 515.8423,-154"/>
<text text-anchor="start" x="551.5688" y="-163" font-family="Times,serif" font-weight="bold" font-size="10.00" fill="#000000">Banco</text>
<polygon fill="none" stroke="#000000" points="515.8423,-132 515.8423,-154 612.8423,-154 612.8423,-132 515.8423,-132"/>
<text text-anchor="start" x="520.8423" y="-141" font-family="Times,serif" text-decoration="underline" font-size="10.00" fill="#000000">idBanco</text>
<text text-anchor="start" x="554.1683" y="-141" font-family="Times,serif" font-size="10.00" fill="#000000">: NUMBER</text>
<polygon fill="none" stroke="#000000" points="515.8423,-110 515.8423,-132 612.8423,-132 612.8423,-110 515.8423,-110"/>
<text text-anchor="start" x="520.8423" y="-118" font-family="Times,serif" font-size="10.00" fill="#000000">nombre: STRING</text>
<polygon fill="none" stroke="#000000" points="515.8423,-88 515.8423,-110 612.8423,-110 612.8423,-88 515.8423,-88"/>
<text text-anchor="start" x="520.5988" y="-97" font-family="Times,serif" font-style="italic" text-decoration="underline" font-size="10.00" fill="#000000">idUsuario</text>
<text text-anchor="start" x="560.0328" y="-97" font-family="Times,serif" font-size="10.00" fill="#000000">: NUMBER</text>
<polygon fill="none" stroke="#000000" points="515.8423,-66 515.8423,-88 612.8423,-88 612.8423,-66 515.8423,-66"/>
<text text-anchor="start" x="520.8423" y="-74" font-family="Times,serif" font-size="10.00" fill="#000000">activo: BOOLEAN</text>
<polygon fill="none" stroke="#000000" points="515.8423,-44 515.8423,-66 612.8423,-66 612.8423,-44 515.8423,-44"/>
<text text-anchor="start" x="520.8423" y="-52" font-family="Times,serif" font-size="10.00" fill="#000000">createdAt: DATE</text>
<polygon fill="none" stroke="#000000" points="515.8423,-22 515.8423,-44 612.8423,-44 612.8423,-22 515.8423,-22"/>
<text text-anchor="start" x="520.8423" y="-30" font-family="Times,serif" font-size="10.00" fill="#000000">updatedAt: DATE</text>
<polygon fill="none" stroke="#000000" points="515.8423,0 515.8423,-22 612.8423,-22 612.8423,0 515.8423,0"/>
<text text-anchor="start" x="520.8423" y="-8" font-family="Times,serif" font-size="10.00" fill="#000000">deletedAt: DATE</text>
</g>
<!-- Usuario -->
<g id="node10" class="node">
<title>Usuario</title>
<polygon fill="#add8e6" stroke="transparent" points="1027.6846,-676.8423 1027.6846,-698.8423 1124.6846,-698.8423 1124.6846,-676.8423 1027.6846,-676.8423"/>
<polygon fill="none" stroke="#000000" points="1027.6846,-676.8423 1027.6846,-698.8423 1124.6846,-698.8423 1124.6846,-676.8423 1027.6846,-676.8423"/>
<text text-anchor="start" x="1060.3571" y="-685.8423" font-family="Times,serif" font-weight="bold" font-size="10.00" fill="#000000">Usuario</text>
<polygon fill="none" stroke="#000000" points="1027.6846,-654.8423 1027.6846,-676.8423 1124.6846,-676.8423 1124.6846,-654.8423 1027.6846,-654.8423"/>
<text text-anchor="start" x="1032.4411" y="-663.8423" font-family="Times,serif" text-decoration="underline" font-size="10.00" fill="#000000">idUsuario</text>
<text text-anchor="start" x="1071.8751" y="-663.8423" font-family="Times,serif" font-size="10.00" fill="#000000">: NUMBER</text>
<polygon fill="none" stroke="#000000" points="1027.6846,-632.8423 1027.6846,-654.8423 1124.6846,-654.8423 1124.6846,-632.8423 1027.6846,-632.8423"/>
<text text-anchor="start" x="1032.6846" y="-640.8423" font-family="Times,serif" font-size="10.00" fill="#000000">username: STRING</text>
<polygon fill="none" stroke="#000000" points="1027.6846,-610.8423 1027.6846,-632.8423 1124.6846,-632.8423 1124.6846,-610.8423 1027.6846,-610.8423"/>
<text text-anchor="start" x="1032.6846" y="-618.8423" font-family="Times,serif" font-size="10.00" fill="#000000">email: STRING</text>
<polygon fill="none" stroke="#000000" points="1027.6846,-588.8423 1027.6846,-610.8423 1124.6846,-610.8423 1124.6846,-588.8423 1027.6846,-588.8423"/>
<text text-anchor="start" x="1032.6846" y="-596.8423" font-family="Times,serif" font-size="10.00" fill="#000000">password: STRING</text>
<polygon fill="none" stroke="#000000" points="1027.6846,-566.8423 1027.6846,-588.8423 1124.6846,-588.8423 1124.6846,-566.8423 1027.6846,-566.8423"/>
<text text-anchor="start" x="1032.6846" y="-575.8423" font-family="Times,serif" font-style="italic" text-decoration="underline" font-size="10.00" fill="#000000">idPerfil</text>
<text text-anchor="start" x="1062.6776" y="-575.8423" font-family="Times,serif" font-size="10.00" fill="#000000">: NUMBER</text>
<polygon fill="none" stroke="#000000" points="1027.6846,-544.8423 1027.6846,-566.8423 1124.6846,-566.8423 1124.6846,-544.8423 1027.6846,-544.8423"/>
<text text-anchor="start" x="1032.6846" y="-552.8423" font-family="Times,serif" font-size="10.00" fill="#000000">createdAt: DATE</text>
<polygon fill="none" stroke="#000000" points="1027.6846,-522.8423 1027.6846,-544.8423 1124.6846,-544.8423 1124.6846,-522.8423 1027.6846,-522.8423"/>
<text text-anchor="start" x="1032.6846" y="-530.8423" font-family="Times,serif" font-size="10.00" fill="#000000">updatedAt: DATE</text>
<polygon fill="none" stroke="#000000" points="1027.6846,-500.8423 1027.6846,-522.8423 1124.6846,-522.8423 1124.6846,-500.8423 1027.6846,-500.8423"/>
<text text-anchor="start" x="1032.6846" y="-508.8423" font-family="Times,serif" font-size="10.00" fill="#000000">deletedAt: DATE</text>
</g>
<!-- Banco&#45;&gt;Usuario -->
<g id="edge1" class="edge">
<title>Banco&#45;&gt;Usuario</title>
<path fill="none" stroke="#000000" stroke-width=".75" d="M616.8273,-140.985C716.5454,-240.7031 930.7171,-454.8748 1027.021,-551.1787"/>
<polygon fill="#000000" stroke="#000000" stroke-width=".75" points="616.6993,-140.857 614.3658,-134.7051 614.578,-138.7357 612.4566,-136.6143 612.4566,-136.6143 612.4566,-136.6143 614.578,-138.7357 610.5474,-138.5235 616.6993,-140.857 616.6993,-140.857"/>
</g>
<!-- Categoria -->
<g id="node2" class="node">
<title>Categoria</title>
<polygon fill="#add8e6" stroke="transparent" points="149.9151,-1049.7695 149.9151,-1071.7695 253.9151,-1071.7695 253.9151,-1049.7695 149.9151,-1049.7695"/>
<polygon fill="none" stroke="#000000" points="149.9151,-1049.7695 149.9151,-1071.7695 253.9151,-1071.7695 253.9151,-1049.7695 149.9151,-1049.7695"/>
<text text-anchor="start" x="182.4786" y="-1058.7695" font-family="Times,serif" font-weight="bold" font-size="10.00" fill="#000000">Categoria</text>
<polygon fill="none" stroke="#000000" points="149.9151,-1027.7695 149.9151,-1049.7695 253.9151,-1049.7695 253.9151,-1027.7695 149.9151,-1027.7695"/>
<text text-anchor="start" x="154.5626" y="-1036.7695" font-family="Times,serif" text-decoration="underline" font-size="10.00" fill="#000000">idCategoria</text>
<text text-anchor="start" x="201.2146" y="-1036.7695" font-family="Times,serif" font-size="10.00" fill="#000000">: NUMBER</text>
<polygon fill="none" stroke="#000000" points="149.9151,-1005.7695 149.9151,-1027.7695 253.9151,-1027.7695 253.9151,-1005.7695 149.9151,-1005.7695"/>
<text text-anchor="start" x="154.9151" y="-1013.7695" font-family="Times,serif" font-size="10.00" fill="#000000">nombre: STRING</text>
<polygon fill="none" stroke="#000000" points="149.9151,-983.7695 149.9151,-1005.7695 253.9151,-1005.7695 253.9151,-983.7695 149.9151,-983.7695"/>
<text text-anchor="start" x="154.9151" y="-991.7695" font-family="Times,serif" font-size="10.00" fill="#000000">activo: BOOLEAN</text>
<polygon fill="none" stroke="#000000" points="149.9151,-961.7695 149.9151,-983.7695 253.9151,-983.7695 253.9151,-961.7695 149.9151,-961.7695"/>
<text text-anchor="start" x="154.9151" y="-969.7695" font-family="Times,serif" font-size="10.00" fill="#000000">tipo: ENUM</text>
<polygon fill="none" stroke="#000000" points="149.9151,-939.7695 149.9151,-961.7695 253.9151,-961.7695 253.9151,-939.7695 149.9151,-939.7695"/>
<text text-anchor="start" x="154.9151" y="-947.7695" font-family="Times,serif" font-size="10.00" fill="#000000">text_color: STRING</text>
<polygon fill="none" stroke="#000000" points="149.9151,-917.7695 149.9151,-939.7695 253.9151,-939.7695 253.9151,-917.7695 149.9151,-917.7695"/>
<text text-anchor="start" x="154.9151" y="-925.7695" font-family="Times,serif" font-size="10.00" fill="#000000">bg_color: STRING</text>
<polygon fill="none" stroke="#000000" points="149.9151,-895.7695 149.9151,-917.7695 253.9151,-917.7695 253.9151,-895.7695 149.9151,-895.7695"/>
<text text-anchor="start" x="154.9151" y="-903.7695" font-family="Times,serif" font-size="10.00" fill="#000000">createdAt: DATE</text>
<polygon fill="none" stroke="#000000" points="149.9151,-873.7695 149.9151,-895.7695 253.9151,-895.7695 253.9151,-873.7695 149.9151,-873.7695"/>
<text text-anchor="start" x="154.9151" y="-881.7695" font-family="Times,serif" font-size="10.00" fill="#000000">updatedAt: DATE</text>
<polygon fill="none" stroke="#000000" points="149.9151,-851.7695 149.9151,-873.7695 253.9151,-873.7695 253.9151,-851.7695 149.9151,-851.7695"/>
<text text-anchor="start" x="154.9151" y="-859.7695" font-family="Times,serif" font-size="10.00" fill="#000000">deletedAt: DATE</text>
</g>
<!-- Destino -->
<g id="node3" class="node">
<title>Destino</title>
<polygon fill="#add8e6" stroke="transparent" points="511.8423,-1177.6846 511.8423,-1199.6846 615.8423,-1199.6846 615.8423,-1177.6846 511.8423,-1177.6846"/>
<polygon fill="none" stroke="#000000" points="511.8423,-1177.6846 511.8423,-1199.6846 615.8423,-1199.6846 615.8423,-1177.6846 511.8423,-1177.6846"/>
<text text-anchor="start" x="548.2898" y="-1186.6846" font-family="Times,serif" font-weight="bold" font-size="10.00" fill="#000000">Destino</text>
<polygon fill="none" stroke="#000000" points="511.8423,-1155.6846 511.8423,-1177.6846 615.8423,-1177.6846 615.8423,-1155.6846 511.8423,-1155.6846"/>
<text text-anchor="start" x="516.8423" y="-1164.6846" font-family="Times,serif" text-decoration="underline" font-size="10.00" fill="#000000">idDestino</text>
<text text-anchor="start" x="555.7263" y="-1164.6846" font-family="Times,serif" font-size="10.00" fill="#000000">: NUMBER</text>
<polygon fill="none" stroke="#000000" points="511.8423,-1133.6846 511.8423,-1155.6846 615.8423,-1155.6846 615.8423,-1133.6846 511.8423,-1133.6846"/>
<text text-anchor="start" x="516.8423" y="-1141.6846" font-family="Times,serif" font-size="10.00" fill="#000000">nombre: STRING</text>
<polygon fill="none" stroke="#000000" points="511.8423,-1111.6846 511.8423,-1133.6846 615.8423,-1133.6846 615.8423,-1111.6846 511.8423,-1111.6846"/>
<text text-anchor="start" x="516.4898" y="-1120.6846" font-family="Times,serif" font-style="italic" text-decoration="underline" font-size="10.00" fill="#000000">idCategoria</text>
<text text-anchor="start" x="563.1418" y="-1120.6846" font-family="Times,serif" font-size="10.00" fill="#000000">: NUMBER</text>
<polygon fill="none" stroke="#000000" points="511.8423,-1089.6846 511.8423,-1111.6846 615.8423,-1111.6846 615.8423,-1089.6846 511.8423,-1089.6846"/>
<text text-anchor="start" x="516.8423" y="-1097.6846" font-family="Times,serif" font-size="10.00" fill="#000000">activo: BOOLEAN</text>
<polygon fill="none" stroke="#000000" points="511.8423,-1067.6846 511.8423,-1089.6846 615.8423,-1089.6846 615.8423,-1067.6846 511.8423,-1067.6846"/>
<text text-anchor="start" x="516.8423" y="-1075.6846" font-family="Times,serif" font-size="10.00" fill="#000000">createdAt: DATE</text>
<polygon fill="none" stroke="#000000" points="511.8423,-1045.6846 511.8423,-1067.6846 615.8423,-1067.6846 615.8423,-1045.6846 511.8423,-1045.6846"/>
<text text-anchor="start" x="516.8423" y="-1053.6846" font-family="Times,serif" font-size="10.00" fill="#000000">updatedAt: DATE</text>
<polygon fill="none" stroke="#000000" points="511.8423,-1023.6846 511.8423,-1045.6846 615.8423,-1045.6846 615.8423,-1023.6846 511.8423,-1023.6846"/>
<text text-anchor="start" x="516.8423" y="-1031.6846" font-family="Times,serif" font-size="10.00" fill="#000000">deletedAt: DATE</text>
</g>
<!-- Destino&#45;&gt;Categoria -->
<g id="edge2" class="edge">
<title>Destino&#45;&gt;Categoria</title>
<path fill="none" stroke="#000000" stroke-width=".75" d="M505.852,-1087.6642C436.3634,-1058.8811 320.9651,-1011.0816 254.1401,-983.4017"/>
<polygon fill="#000000" stroke="#000000" stroke-width=".75" points="506.0582,-1087.7496 510.5682,-1092.5402 508.8299,-1088.8977 511.6015,-1090.0458 511.6015,-1090.0458 511.6015,-1090.0458 508.8299,-1088.8977 512.6348,-1087.5513 506.0582,-1087.7496 506.0582,-1087.7496"/>
</g>
<!-- FormaPago -->
<g id="node4" class="node">
<title>FormaPago</title>
<polygon fill="#add8e6" stroke="transparent" points="1057.5205,-1150.5061 1057.5205,-1172.5061 1168.5205,-1172.5061 1168.5205,-1150.5061 1057.5205,-1150.5061"/>
<polygon fill="none" stroke="#000000" points="1057.5205,-1150.5061 1057.5205,-1172.5061 1168.5205,-1172.5061 1168.5205,-1150.5061 1057.5205,-1150.5061"/>
<text text-anchor="start" x="1089.9685" y="-1159.5061" font-family="Times,serif" font-weight="bold" font-size="10.00" fill="#000000">FormaPago</text>
<polygon fill="none" stroke="#000000" points="1057.5205,-1128.5061 1057.5205,-1150.5061 1168.5205,-1150.5061 1168.5205,-1128.5061 1057.5205,-1128.5061"/>
<text text-anchor="start" x="1062.0525" y="-1137.5061" font-family="Times,serif" text-decoration="underline" font-size="10.00" fill="#000000">idFormaPago</text>
<text text-anchor="start" x="1115.9355" y="-1137.5061" font-family="Times,serif" font-size="10.00" fill="#000000">: NUMBER</text>
<polygon fill="none" stroke="#000000" points="1057.5205,-1106.5061 1057.5205,-1128.5061 1168.5205,-1128.5061 1168.5205,-1106.5061 1057.5205,-1106.5061"/>
<text text-anchor="start" x="1062.5205" y="-1114.5061" font-family="Times,serif" font-size="10.00" fill="#000000">nombre: STRING</text>
<polygon fill="none" stroke="#000000" points="1057.5205,-1084.5061 1057.5205,-1106.5061 1168.5205,-1106.5061 1168.5205,-1084.5061 1057.5205,-1084.5061"/>
<text text-anchor="start" x="1062.5205" y="-1092.5061" font-family="Times,serif" font-size="10.00" fill="#000000">activo: BOOLEAN</text>
<polygon fill="none" stroke="#000000" points="1057.5205,-1062.5061 1057.5205,-1084.5061 1168.5205,-1084.5061 1168.5205,-1062.5061 1057.5205,-1062.5061"/>
<text text-anchor="start" x="1062.5205" y="-1070.5061" font-family="Times,serif" font-size="10.00" fill="#000000">createdAt: DATE</text>
<polygon fill="none" stroke="#000000" points="1057.5205,-1040.5061 1057.5205,-1062.5061 1168.5205,-1062.5061 1168.5205,-1040.5061 1057.5205,-1040.5061"/>
<text text-anchor="start" x="1062.5205" y="-1048.5061" font-family="Times,serif" font-size="10.00" fill="#000000">updatedAt: DATE</text>
<polygon fill="none" stroke="#000000" points="1057.5205,-1018.5061 1057.5205,-1040.5061 1168.5205,-1040.5061 1168.5205,-1018.5061 1057.5205,-1018.5061"/>
<text text-anchor="start" x="1062.5205" y="-1026.5061" font-family="Times,serif" font-size="10.00" fill="#000000">deletedAt: DATE</text>
</g>
<!-- Gasto -->
<g id="node5" class="node">
<title>Gasto</title>
<polygon fill="#add8e6" stroke="transparent" points="783.2369,-1019.2478 783.2369,-1041.2478 898.2369,-1041.2478 898.2369,-1019.2478 783.2369,-1019.2478"/>
<polygon fill="none" stroke="#000000" points="783.2369,-1019.2478 783.2369,-1041.2478 898.2369,-1041.2478 898.2369,-1019.2478 783.2369,-1019.2478"/>
<text text-anchor="start" x="829.0739" y="-1028.2478" font-family="Times,serif" font-weight="bold" font-size="10.00" fill="#000000">Gasto</text>
<polygon fill="none" stroke="#000000" points="783.2369,-997.2478 783.2369,-1019.2478 898.2369,-1019.2478 898.2369,-997.2478 783.2369,-997.2478"/>
<text text-anchor="start" x="788.2369" y="-1006.2478" font-family="Times,serif" text-decoration="underline" font-size="10.00" fill="#000000">idGasto</text>
<text text-anchor="start" x="819.3419" y="-1006.2478" font-family="Times,serif" font-size="10.00" fill="#000000">: NUMBER</text>
<polygon fill="none" stroke="#000000" points="783.2369,-975.2478 783.2369,-997.2478 898.2369,-997.2478 898.2369,-975.2478 783.2369,-975.2478"/>
<text text-anchor="start" x="788.2369" y="-983.2478" font-family="Times,serif" font-size="10.00" fill="#000000">monto: NUMBER</text>
<polygon fill="none" stroke="#000000" points="783.2369,-953.2478 783.2369,-975.2478 898.2369,-975.2478 898.2369,-953.2478 783.2369,-953.2478"/>
<text text-anchor="start" x="788.2369" y="-961.2478" font-family="Times,serif" font-size="10.00" fill="#000000">descripcion: STRING</text>
<polygon fill="none" stroke="#000000" points="783.2369,-931.2478 783.2369,-953.2478 898.2369,-953.2478 898.2369,-931.2478 783.2369,-931.2478"/>
<text text-anchor="start" x="788.2369" y="-939.2478" font-family="Times,serif" font-size="10.00" fill="#000000">fecha: DATE</text>
<polygon fill="none" stroke="#000000" points="783.2369,-909.2478 783.2369,-931.2478 898.2369,-931.2478 898.2369,-909.2478 783.2369,-909.2478"/>
<text text-anchor="start" x="788.2369" y="-918.2478" font-family="Times,serif" font-style="italic" text-decoration="underline" font-size="10.00" fill="#000000">idUsuario</text>
<text text-anchor="start" x="827.6709" y="-918.2478" font-family="Times,serif" font-size="10.00" fill="#000000">: NUMBER</text>
<polygon fill="none" stroke="#000000" points="783.2369,-887.2478 783.2369,-909.2478 898.2369,-909.2478 898.2369,-887.2478 783.2369,-887.2478"/>
<text text-anchor="start" x="788.2369" y="-896.2478" font-family="Times,serif" font-style="italic" text-decoration="underline" font-size="10.00" fill="#000000">idDestino</text>
<text text-anchor="start" x="827.1209" y="-896.2478" font-family="Times,serif" font-size="10.00" fill="#000000">: NUMBER</text>
<polygon fill="none" stroke="#000000" points="783.2369,-865.2478 783.2369,-887.2478 898.2369,-887.2478 898.2369,-865.2478 783.2369,-865.2478"/>
<text text-anchor="start" x="788.1204" y="-873.2478" font-family="Times,serif" font-size="10.00" fill="#000000">fechaVencimiento: DATE</text>
<polygon fill="none" stroke="#000000" points="783.2369,-843.2478 783.2369,-865.2478 898.2369,-865.2478 898.2369,-843.2478 783.2369,-843.2478"/>
<text text-anchor="start" x="788.2369" y="-851.2478" font-family="Times,serif" font-size="10.00" fill="#000000">fechaPago: DATE</text>
<polygon fill="none" stroke="#000000" points="783.2369,-821.2478 783.2369,-843.2478 898.2369,-843.2478 898.2369,-821.2478 783.2369,-821.2478"/>
<text text-anchor="start" x="788.2369" y="-830.2478" font-family="Times,serif" font-style="italic" text-decoration="underline" font-size="10.00" fill="#000000">idFormaPago</text>
<text text-anchor="start" x="842.1199" y="-830.2478" font-family="Times,serif" font-size="10.00" fill="#000000">: NUMBER</text>
<polygon fill="none" stroke="#000000" points="783.2369,-799.2478 783.2369,-821.2478 898.2369,-821.2478 898.2369,-799.2478 783.2369,-799.2478"/>
<text text-anchor="start" x="788.2369" y="-808.2478" font-family="Times,serif" font-style="italic" text-decoration="underline" font-size="10.00" fill="#000000">idTarjeta</text>
<text text-anchor="start" x="824.3289" y="-808.2478" font-family="Times,serif" font-size="10.00" fill="#000000">: NUMBER</text>
<polygon fill="none" stroke="#000000" points="783.2369,-777.2478 783.2369,-799.2478 898.2369,-799.2478 898.2369,-777.2478 783.2369,-777.2478"/>
<text text-anchor="start" x="788.2369" y="-785.2478" font-family="Times,serif" font-size="10.00" fill="#000000">cuotas: NUMBER</text>
<polygon fill="none" stroke="#000000" points="783.2369,-755.2478 783.2369,-777.2478 898.2369,-777.2478 898.2369,-755.2478 783.2369,-755.2478"/>
<text text-anchor="start" x="788.2369" y="-763.2478" font-family="Times,serif" font-size="10.00" fill="#000000">createdAt: DATE</text>
<polygon fill="none" stroke="#000000" points="783.2369,-733.2478 783.2369,-755.2478 898.2369,-755.2478 898.2369,-733.2478 783.2369,-733.2478"/>
<text text-anchor="start" x="788.2369" y="-741.2478" font-family="Times,serif" font-size="10.00" fill="#000000">updatedAt: DATE</text>
<polygon fill="none" stroke="#000000" points="783.2369,-711.2478 783.2369,-733.2478 898.2369,-733.2478 898.2369,-711.2478 783.2369,-711.2478"/>
<text text-anchor="start" x="788.2369" y="-719.2478" font-family="Times,serif" font-size="10.00" fill="#000000">deletedAt: DATE</text>
</g>
<!-- Gasto&#45;&gt;Destino -->
<g id="edge5" class="edge">
<title>Gasto&#45;&gt;Destino</title>
<path fill="none" stroke="#000000" stroke-width=".75" d="M777.9743,-929.2839C729.2425,-970.7944 662.2417,-1027.8666 616.235,-1067.0557"/>
<polygon fill="#000000" stroke="#000000" stroke-width=".75" points="778.0644,-929.2072 784.3828,-927.3719 780.3482,-927.2618 782.632,-925.3165 782.632,-925.3165 782.632,-925.3165 780.3482,-927.2618 780.8811,-923.2611 778.0644,-929.2072 778.0644,-929.2072"/>
</g>
<!-- Gasto&#45;&gt;FormaPago -->
<g id="edge4" class="edge">
<title>Gasto&#45;&gt;FormaPago</title>
<path fill="none" stroke="#000000" stroke-width=".75" d="M902.7068,-926.5522C949.1486,-963.9497 1011.9575,-1014.527 1056.7217,-1050.5737"/>
<polygon fill="#000000" stroke="#000000" stroke-width=".75" points="902.6545,-926.51 899.6747,-920.6439 900.3179,-924.6284 897.9812,-922.7468 897.9812,-922.7468 897.9812,-922.7468 900.3179,-924.6284 896.2878,-924.8498 902.6545,-926.51 902.6545,-926.51"/>
</g>
<!-- Tarjeta -->
<g id="node9" class="node">
<title>Tarjeta</title>
<polygon fill="#add8e6" stroke="transparent" points="877.7695,-347.9151 877.7695,-369.9151 974.7695,-369.9151 974.7695,-347.9151 877.7695,-347.9151"/>
<polygon fill="none" stroke="#000000" points="877.7695,-347.9151 877.7695,-369.9151 974.7695,-369.9151 974.7695,-347.9151 877.7695,-347.9151"/>
<text text-anchor="start" x="912.113" y="-356.9151" font-family="Times,serif" font-weight="bold" font-size="10.00" fill="#000000">Tarjeta</text>
<polygon fill="none" stroke="#000000" points="877.7695,-325.9151 877.7695,-347.9151 974.7695,-347.9151 974.7695,-325.9151 877.7695,-325.9151"/>
<text text-anchor="start" x="882.7695" y="-334.9151" font-family="Times,serif" text-decoration="underline" font-size="10.00" fill="#000000">idTarjeta</text>
<text text-anchor="start" x="918.8615" y="-334.9151" font-family="Times,serif" font-size="10.00" fill="#000000">: NUMBER</text>
<polygon fill="none" stroke="#000000" points="877.7695,-303.9151 877.7695,-325.9151 974.7695,-325.9151 974.7695,-303.9151 877.7695,-303.9151"/>
<text text-anchor="start" x="882.7695" y="-311.9151" font-family="Times,serif" font-size="10.00" fill="#000000">nombre: STRING</text>
<polygon fill="none" stroke="#000000" points="877.7695,-281.9151 877.7695,-303.9151 974.7695,-303.9151 974.7695,-281.9151 877.7695,-281.9151"/>
<text text-anchor="start" x="882.7695" y="-289.9151" font-family="Times,serif" font-size="10.00" fill="#000000">limite: NUMBER</text>
<polygon fill="none" stroke="#000000" points="877.7695,-259.9151 877.7695,-281.9151 974.7695,-281.9151 974.7695,-259.9151 877.7695,-259.9151"/>
<text text-anchor="start" x="882.526" y="-268.9151" font-family="Times,serif" font-style="italic" text-decoration="underline" font-size="10.00" fill="#000000">idUsuario</text>
<text text-anchor="start" x="921.96" y="-268.9151" font-family="Times,serif" font-size="10.00" fill="#000000">: NUMBER</text>
<polygon fill="none" stroke="#000000" points="877.7695,-237.9151 877.7695,-259.9151 974.7695,-259.9151 974.7695,-237.9151 877.7695,-237.9151"/>
<text text-anchor="start" x="882.7695" y="-246.9151" font-family="Times,serif" font-style="italic" text-decoration="underline" font-size="10.00" fill="#000000">idBanco</text>
<text text-anchor="start" x="916.0955" y="-246.9151" font-family="Times,serif" font-size="10.00" fill="#000000">: NUMBER</text>
<polygon fill="none" stroke="#000000" points="877.7695,-215.9151 877.7695,-237.9151 974.7695,-237.9151 974.7695,-215.9151 877.7695,-215.9151"/>
<text text-anchor="start" x="882.7695" y="-223.9151" font-family="Times,serif" font-size="10.00" fill="#000000">terminaEn: STRING</text>
<polygon fill="none" stroke="#000000" points="877.7695,-193.9151 877.7695,-215.9151 974.7695,-215.9151 974.7695,-193.9151 877.7695,-193.9151"/>
<text text-anchor="start" x="882.7695" y="-201.9151" font-family="Times,serif" font-size="10.00" fill="#000000">color: STRING</text>
<polygon fill="none" stroke="#000000" points="877.7695,-171.9151 877.7695,-193.9151 974.7695,-193.9151 974.7695,-171.9151 877.7695,-171.9151"/>
<text text-anchor="start" x="882.7695" y="-179.9151" font-family="Times,serif" font-size="10.00" fill="#000000">activo: BOOLEAN</text>
<polygon fill="none" stroke="#000000" points="877.7695,-149.9151 877.7695,-171.9151 974.7695,-171.9151 974.7695,-149.9151 877.7695,-149.9151"/>
<text text-anchor="start" x="882.7695" y="-157.9151" font-family="Times,serif" font-size="10.00" fill="#000000">createdAt: DATE</text>
<polygon fill="none" stroke="#000000" points="877.7695,-127.9151 877.7695,-149.9151 974.7695,-149.9151 974.7695,-127.9151 877.7695,-127.9151"/>
<text text-anchor="start" x="882.7695" y="-135.9151" font-family="Times,serif" font-size="10.00" fill="#000000">updatedAt: DATE</text>
<polygon fill="none" stroke="#000000" points="877.7695,-105.9151 877.7695,-127.9151 974.7695,-127.9151 974.7695,-105.9151 877.7695,-105.9151"/>
<text text-anchor="start" x="882.7695" y="-113.9151" font-family="Times,serif" font-size="10.00" fill="#000000">deletedAt: DATE</text>
</g>
<!-- Gasto&#45;&gt;Tarjeta -->
<g id="edge6" class="edge">
<title>Gasto&#45;&gt;Tarjeta</title>
<path fill="none" stroke="#000000" stroke-width=".75" d="M863.2125,-704.78C877.3029,-599.6225 895.0705,-467.0223 908.0665,-370.0332"/>
<polygon fill="#000000" stroke="#000000" stroke-width=".75" points="863.1718,-705.0843 859.6988,-710.6725 862.7733,-708.0577 862.3749,-711.0311 862.3749,-711.0311 862.3749,-711.0311 862.7733,-708.0577 865.051,-711.3897 863.1718,-705.0843 863.1718,-705.0843"/>
</g>
<!-- Gasto&#45;&gt;Usuario -->
<g id="edge3" class="edge">
<title>Gasto&#45;&gt;Usuario</title>
<path fill="none" stroke="#000000" stroke-width=".75" d="M901.8202,-803.9517C940.8903,-758.0851 990.7324,-699.5725 1027.0258,-656.9657"/>
<polygon fill="#000000" stroke="#000000" stroke-width=".75" points="901.7246,-804.0638 895.7785,-806.8806 899.7793,-806.3476 897.8339,-808.6314 897.8339,-808.6314 897.8339,-808.6314 899.7793,-806.3476 899.8893,-810.3822 901.7246,-804.0638 901.7246,-804.0638"/>
</g>
<!-- Ingreso -->
<g id="node6" class="node">
<title>Ingreso</title>
<polygon fill="#add8e6" stroke="transparent" points="153.9151,-336.9151 153.9151,-358.9151 250.9151,-358.9151 250.9151,-336.9151 153.9151,-336.9151"/>
<polygon fill="none" stroke="#000000" points="153.9151,-336.9151 153.9151,-358.9151 250.9151,-358.9151 250.9151,-336.9151 153.9151,-336.9151"/>
<text text-anchor="start" x="187.4221" y="-345.9151" font-family="Times,serif" font-weight="bold" font-size="10.00" fill="#000000">Ingreso</text>
<polygon fill="none" stroke="#000000" points="153.9151,-314.9151 153.9151,-336.9151 250.9151,-336.9151 250.9151,-314.9151 153.9151,-314.9151"/>
<text text-anchor="start" x="158.9151" y="-323.9151" font-family="Times,serif" text-decoration="underline" font-size="10.00" fill="#000000">idIngreso</text>
<text text-anchor="start" x="196.6801" y="-323.9151" font-family="Times,serif" font-size="10.00" fill="#000000">: NUMBER</text>
<polygon fill="none" stroke="#000000" points="153.9151,-292.9151 153.9151,-314.9151 250.9151,-314.9151 250.9151,-292.9151 153.9151,-292.9151"/>
<text text-anchor="start" x="158.9151" y="-300.9151" font-family="Times,serif" font-size="10.00" fill="#000000">monto: NUMBER</text>
<polygon fill="none" stroke="#000000" points="153.9151,-270.9151 153.9151,-292.9151 250.9151,-292.9151 250.9151,-270.9151 153.9151,-270.9151"/>
<text text-anchor="start" x="158.6771" y="-278.9151" font-family="Times,serif" font-size="10.00" fill="#000000">descripcion: STRING</text>
<polygon fill="none" stroke="#000000" points="153.9151,-248.9151 153.9151,-270.9151 250.9151,-270.9151 250.9151,-248.9151 153.9151,-248.9151"/>
<text text-anchor="start" x="158.9151" y="-256.9151" font-family="Times,serif" font-size="10.00" fill="#000000">fecha: DATE</text>
<polygon fill="none" stroke="#000000" points="153.9151,-226.9151 153.9151,-248.9151 250.9151,-248.9151 250.9151,-226.9151 153.9151,-226.9151"/>
<text text-anchor="start" x="158.6716" y="-235.9151" font-family="Times,serif" font-style="italic" text-decoration="underline" font-size="10.00" fill="#000000">idUsuario</text>
<text text-anchor="start" x="198.1056" y="-235.9151" font-family="Times,serif" font-size="10.00" fill="#000000">: NUMBER</text>
<polygon fill="none" stroke="#000000" points="153.9151,-204.9151 153.9151,-226.9151 250.9151,-226.9151 250.9151,-204.9151 153.9151,-204.9151"/>
<text text-anchor="start" x="158.9151" y="-213.9151" font-family="Times,serif" font-style="italic" text-decoration="underline" font-size="10.00" fill="#000000">idOrigen</text>
<text text-anchor="start" x="194.4601" y="-213.9151" font-family="Times,serif" font-size="10.00" fill="#000000">: NUMBER</text>
<polygon fill="none" stroke="#000000" points="153.9151,-182.9151 153.9151,-204.9151 250.9151,-204.9151 250.9151,-182.9151 153.9151,-182.9151"/>
<text text-anchor="start" x="158.9151" y="-190.9151" font-family="Times,serif" font-size="10.00" fill="#000000">fechaCobro: DATE</text>
<polygon fill="none" stroke="#000000" points="153.9151,-160.9151 153.9151,-182.9151 250.9151,-182.9151 250.9151,-160.9151 153.9151,-160.9151"/>
<text text-anchor="start" x="158.9151" y="-168.9151" font-family="Times,serif" font-size="10.00" fill="#000000">createdAt: DATE</text>
<polygon fill="none" stroke="#000000" points="153.9151,-138.9151 153.9151,-160.9151 250.9151,-160.9151 250.9151,-138.9151 153.9151,-138.9151"/>
<text text-anchor="start" x="158.9151" y="-146.9151" font-family="Times,serif" font-size="10.00" fill="#000000">updatedAt: DATE</text>
<polygon fill="none" stroke="#000000" points="153.9151,-116.9151 153.9151,-138.9151 250.9151,-138.9151 250.9151,-116.9151 153.9151,-116.9151"/>
<text text-anchor="start" x="158.9151" y="-124.9151" font-family="Times,serif" font-size="10.00" fill="#000000">deletedAt: DATE</text>
</g>
<!-- Origen -->
<g id="node7" class="node">
<title>Origen</title>
<polygon fill="#add8e6" stroke="transparent" points="0,-665.8423 0,-687.8423 104,-687.8423 104,-665.8423 0,-665.8423"/>
<polygon fill="none" stroke="#000000" points="0,-665.8423 0,-687.8423 104,-687.8423 104,-665.8423 0,-665.8423"/>
<text text-anchor="start" x="38.117" y="-674.8423" font-family="Times,serif" font-weight="bold" font-size="10.00" fill="#000000">Origen</text>
<polygon fill="none" stroke="#000000" points="0,-643.8423 0,-665.8423 104,-665.8423 104,-643.8423 0,-643.8423"/>
<text text-anchor="start" x="5" y="-652.8423" font-family="Times,serif" text-decoration="underline" font-size="10.00" fill="#000000">idOrigen</text>
<text text-anchor="start" x="40.545" y="-652.8423" font-family="Times,serif" font-size="10.00" fill="#000000">: NUMBER</text>
<polygon fill="none" stroke="#000000" points="0,-621.8423 0,-643.8423 104,-643.8423 104,-621.8423 0,-621.8423"/>
<text text-anchor="start" x="5" y="-629.8423" font-family="Times,serif" font-size="10.00" fill="#000000">nombre: STRING</text>
<polygon fill="none" stroke="#000000" points="0,-599.8423 0,-621.8423 104,-621.8423 104,-599.8423 0,-599.8423"/>
<text text-anchor="start" x="4.6475" y="-608.8423" font-family="Times,serif" font-style="italic" text-decoration="underline" font-size="10.00" fill="#000000">idCategoria</text>
<text text-anchor="start" x="51.2995" y="-608.8423" font-family="Times,serif" font-size="10.00" fill="#000000">: NUMBER</text>
<polygon fill="none" stroke="#000000" points="0,-577.8423 0,-599.8423 104,-599.8423 104,-577.8423 0,-577.8423"/>
<text text-anchor="start" x="5" y="-585.8423" font-family="Times,serif" font-size="10.00" fill="#000000">activo: BOOLEAN</text>
<polygon fill="none" stroke="#000000" points="0,-555.8423 0,-577.8423 104,-577.8423 104,-555.8423 0,-555.8423"/>
<text text-anchor="start" x="5" y="-563.8423" font-family="Times,serif" font-size="10.00" fill="#000000">createdAt: DATE</text>
<polygon fill="none" stroke="#000000" points="0,-533.8423 0,-555.8423 104,-555.8423 104,-533.8423 0,-533.8423"/>
<text text-anchor="start" x="5" y="-541.8423" font-family="Times,serif" font-size="10.00" fill="#000000">updatedAt: DATE</text>
<polygon fill="none" stroke="#000000" points="0,-511.8423 0,-533.8423 104,-533.8423 104,-511.8423 0,-511.8423"/>
<text text-anchor="start" x="5" y="-519.8423" font-family="Times,serif" font-size="10.00" fill="#000000">deletedAt: DATE</text>
</g>
<!-- Ingreso&#45;&gt;Origen -->
<g id="edge8" class="edge">
<title>Ingreso&#45;&gt;Origen</title>
<path fill="none" stroke="#000000" stroke-width=".75" d="M150.8879,-361.1059C130.4207,-410.5179 107.2943,-466.35 88.555,-511.5907"/>
<polygon fill="#000000" stroke="#000000" stroke-width=".75" points="150.9458,-360.9658 155.7365,-356.4558 152.0939,-358.1942 153.242,-355.4225 153.242,-355.4225 153.242,-355.4225 152.0939,-358.1942 150.7475,-354.3892 150.9458,-360.9658 150.9458,-360.9658"/>
</g>
<!-- Ingreso&#45;&gt;Usuario -->
<g id="edge7" class="edge">
<title>Ingreso&#45;&gt;Usuario</title>
<path fill="none" stroke="#000000" stroke-width=".75" d="M256.4278,-260.495C415.2882,-326.2971 876.1022,-517.1725 1027.1266,-579.7289"/>
<polygon fill="#000000" stroke="#000000" stroke-width=".75" points="255.9941,-260.3154 251.4841,-255.5248 253.2224,-259.1673 250.4508,-258.0193 250.4508,-258.0193 250.4508,-258.0193 253.2224,-259.1673 249.4175,-260.5137 255.9941,-260.3154 255.9941,-260.3154"/>
</g>
<!-- Origen&#45;&gt;Categoria -->
<g id="edge9" class="edge">
<title>Origen&#45;&gt;Categoria</title>
<path fill="none" stroke="#000000" stroke-width=".75" d="M90.8969,-693.7478C110.8892,-742.0134 135.3744,-801.1259 156.2583,-851.5442"/>
<polygon fill="#000000" stroke="#000000" stroke-width=".75" points="90.7778,-693.4601 90.9761,-686.8836 89.6297,-690.6885 88.4817,-687.9168 88.4817,-687.9168 88.4817,-687.9168 89.6297,-690.6885 85.9872,-688.9501 90.7778,-693.4601 90.7778,-693.4601"/>
</g>
<!-- Perfil -->
<g id="node8" class="node">
<title>Perfil</title>
<polygon fill="#add8e6" stroke="transparent" points="1169.6846,-643.8423 1169.6846,-665.8423 1257.6846,-665.8423 1257.6846,-643.8423 1169.6846,-643.8423"/>
<polygon fill="none" stroke="#000000" points="1169.6846,-643.8423 1169.6846,-665.8423 1257.6846,-665.8423 1257.6846,-643.8423 1169.6846,-643.8423"/>
<text text-anchor="start" x="1202.5776" y="-652.8423" font-family="Times,serif" font-weight="bold" font-size="10.00" fill="#000000">Perfil</text>
<polygon fill="none" stroke="#000000" points="1169.6846,-621.8423 1169.6846,-643.8423 1257.6846,-643.8423 1257.6846,-621.8423 1169.6846,-621.8423"/>
<text text-anchor="start" x="1174.6616" y="-630.8423" font-family="Times,serif" text-decoration="underline" font-size="10.00" fill="#000000">idPerfil</text>
<text text-anchor="start" x="1204.6546" y="-630.8423" font-family="Times,serif" font-size="10.00" fill="#000000">: NUMBER</text>
<polygon fill="none" stroke="#000000" points="1169.6846,-599.8423 1169.6846,-621.8423 1257.6846,-621.8423 1257.6846,-599.8423 1169.6846,-599.8423"/>
<text text-anchor="start" x="1174.6846" y="-607.8423" font-family="Times,serif" font-size="10.00" fill="#000000">nombre: STRING</text>
<polygon fill="none" stroke="#000000" points="1169.6846,-577.8423 1169.6846,-599.8423 1257.6846,-599.8423 1257.6846,-577.8423 1169.6846,-577.8423"/>
<text text-anchor="start" x="1174.6846" y="-585.8423" font-family="Times,serif" font-size="10.00" fill="#000000">createdAt: DATE</text>
<polygon fill="none" stroke="#000000" points="1169.6846,-555.8423 1169.6846,-577.8423 1257.6846,-577.8423 1257.6846,-555.8423 1169.6846,-555.8423"/>
<text text-anchor="start" x="1174.6846" y="-563.8423" font-family="Times,serif" font-size="10.00" fill="#000000">updatedAt: DATE</text>
<polygon fill="none" stroke="#000000" points="1169.6846,-533.8423 1169.6846,-555.8423 1257.6846,-555.8423 1257.6846,-533.8423 1169.6846,-533.8423"/>
<text text-anchor="start" x="1174.6846" y="-541.8423" font-family="Times,serif" font-size="10.00" fill="#000000">deletedAt: DATE</text>
</g>
<!-- Tarjeta&#45;&gt;Banco -->
<g id="edge11" class="edge">
<title>Tarjeta&#45;&gt;Banco</title>
<path fill="none" stroke="#000000" stroke-width=".75" d="M871.151,-215.2914C800.8372,-186.1665 679.727,-136.001 612.4567,-108.1367"/>
<polygon fill="#000000" stroke="#000000" stroke-width=".75" points="871.4151,-215.4008 875.9251,-220.1914 874.1867,-216.5488 876.9583,-217.6969 876.9583,-217.6969 876.9583,-217.6969 874.1867,-216.5488 877.9916,-215.2024 871.4151,-215.4008 871.4151,-215.4008"/>
</g>
<!-- Tarjeta&#45;&gt;Usuario -->
<g id="edge10" class="edge">
<title>Tarjeta&#45;&gt;Usuario</title>
<path fill="none" stroke="#000000" stroke-width=".75" d="M976.8491,-361.2324C995.7044,-406.7531 1016.8106,-457.7079 1034.6619,-500.8049"/>
<polygon fill="#000000" stroke="#000000" stroke-width=".75" points="976.7388,-360.9658 976.9371,-354.3892 975.5907,-358.1942 974.4426,-355.4225 974.4426,-355.4225 974.4426,-355.4225 975.5907,-358.1942 971.9481,-356.4558 976.7388,-360.9658 976.7388,-360.9658"/>
</g>
<!-- Usuario&#45;&gt;Perfil -->
<g id="edge12" class="edge">
<title>Usuario&#45;&gt;Perfil</title>
<path fill="none" stroke="#000000" stroke-width=".75" d="M1130.6306,-599.8423C1143.5785,-599.8423 1157.2159,-599.8423 1169.6129,-599.8423"/>
<polygon fill="#000000" stroke="#000000" stroke-width=".75" points="1130.3382,-599.8424 1124.3383,-597.1423 1127.3382,-599.8423 1124.3382,-599.8423 1124.3382,-599.8423 1124.3382,-599.8423 1127.3382,-599.8423 1124.3382,-602.5423 1130.3382,-599.8424 1130.3382,-599.8424"/>
</g>
</g>
</svg>
